<svg width="372" height="252" viewBox="0 0 372 252" fill="none" xmlns="http://www.w3.org/2000/svg">
<path d="M329.221 118.342H48.0933V251.204H329.221V118.342Z" fill="#E6E6E6"/>
<path d="M321.183 129.735H56.1323V240.586H321.183V129.735Z" fill="white"/>
<path d="M276.858 150.368H269.995V157.204H276.858V150.368Z" fill="#E6E6E6"/>
<path d="M93.7872 150.368H86.9238V157.204H93.7872V150.368Z" fill="#7CBAE4"/>
<path d="M109.604 169.949H86.7251V192.735H109.604V169.949Z" fill="#E6E6E6"/>
<path d="M329.102 110.666H47.9736V122.561H329.102V110.666Z" fill="#7CBAE4"/>
<path d="M56.8489 121.457C58.0714 121.457 59.0625 120.47 59.0625 119.252C59.0625 118.035 58.0714 117.048 56.8489 117.048C55.6263 117.048 54.6353 118.035 54.6353 119.252C54.6353 120.47 55.6263 121.457 56.8489 121.457Z" fill="white"/>
<path d="M65.2512 121.457C66.4738 121.457 67.4648 120.47 67.4648 119.252C67.4648 118.035 66.4738 117.048 65.2512 117.048C64.0287 117.048 63.0376 118.035 63.0376 119.252C63.0376 120.47 64.0287 121.457 65.2512 121.457Z" fill="white"/>
<path d="M73.6536 121.457C74.8761 121.457 75.8672 120.47 75.8672 119.252C75.8672 118.035 74.8761 117.048 73.6536 117.048C72.431 117.048 71.4399 118.035 71.4399 119.252C71.4399 120.47 72.431 121.457 73.6536 121.457Z" fill="white"/>
<path d="M372 251.204H0V252H372V251.204Z" fill="#E6E6E6"/>
<path d="M189.384 172.228H133.332V175.432H189.384V172.228Z" fill="#E6E6E6"/>
<path d="M219.888 183.917H133.332V187.122H219.888V183.917Z" fill="#7CBAE4"/>
<path d="M203.873 194.93H133.332V198.135H203.873V194.93Z" fill="#E6E6E6"/>
<path d="M174.513 205.902H133.332V209.107H174.513V205.902Z" fill="#E6E6E6"/>
<path d="M195.485 216.873H133.332V220.078H195.485V216.873Z" fill="#E6E6E6"/>
<path d="M288.679 150.368H281.815V157.204H288.679V150.368Z" fill="#E6E6E6"/>
<path d="M300.499 150.368H293.636V157.204H300.499V150.368Z" fill="#E6E6E6"/>
<path opacity="0.997" d="M286.56 209.106C294.258 209.106 300.499 202.891 300.499 195.224C300.499 187.557 294.258 181.342 286.56 181.342C278.862 181.342 272.622 187.557 272.622 195.224C272.622 202.891 278.862 209.106 286.56 209.106Z" fill="#7CBAE4"/>
<path d="M75.3149 37.5898C83.9815 37.5898 91.0072 30.5925 91.0072 21.9609C91.0072 13.3292 83.9815 6.33191 75.3149 6.33191C66.6483 6.33191 59.6226 13.3292 59.6226 21.9609C59.6226 30.5925 66.6483 37.5898 75.3149 37.5898Z" fill="#2F2E41"/>
<path d="M36.2621 155.684H29.3895L26.1206 129.289H36.2613L36.2621 155.684Z" fill="#FEB8B8"/>
<path d="M24.4836 153.729H37.7345V162.038H16.1401C16.1401 159.835 17.0192 157.721 18.5839 156.163C20.1486 154.604 22.2707 153.729 24.4836 153.729V153.729Z" fill="#2F2E41"/>
<path d="M25.5368 151.865L18.9814 149.816L23.7971 123.656L33.4723 126.681L25.5368 151.865Z" fill="#FEB8B8"/>
<path d="M14.8823 146.488L27.5257 150.44L25.0275 158.368L4.42383 151.928C4.7519 150.887 5.28266 149.92 5.98582 149.084C6.68898 148.247 7.55076 147.556 8.52196 147.051C9.49315 146.546 10.5547 146.236 11.6461 146.139C12.7375 146.043 13.8373 146.161 14.8827 146.488V146.488L14.8823 146.488Z" fill="#2F2E41"/>
<path d="M27.7723 141.332C27.4721 141.332 27.1743 141.278 26.8932 141.173L21.8367 139.286C21.2692 139.072 20.7977 138.662 20.5083 138.131C20.2188 137.6 20.1305 136.983 20.2596 136.392C21.5322 130.693 25.8695 111.29 28.2446 100.883C31.0611 88.539 72.1514 86.2451 73.8991 86.1536L74.0429 86.1461L78.6652 91.9288C80.3354 97.2757 79.806 101.446 77.0917 104.325C69.171 112.724 45.5232 107.512 42.7035 106.853L30.135 139.715C29.9518 140.191 29.628 140.6 29.2064 140.889C28.7848 141.178 28.2852 141.332 27.7735 141.332H27.7723Z" fill="#2F2E41"/>
<path d="M35.0579 145.24C34.7576 145.24 34.4598 145.186 34.1788 145.081L29.1238 143.193C28.5563 142.979 28.0848 142.569 27.7953 142.038C27.5058 141.507 27.4176 140.89 27.5467 140.299C28.8194 134.6 33.1567 115.197 35.5318 104.79C38.3483 92.4461 79.4385 90.1522 81.1863 90.0607L81.3301 90.0532L85.9507 95.8375C87.6209 101.184 87.0915 105.355 84.3772 108.234C76.457 116.631 52.8088 111.421 49.989 110.761L37.4189 143.622C37.2358 144.098 36.912 144.507 36.4904 144.796C36.0688 145.085 35.5691 145.239 35.0575 145.239L35.0579 145.24Z" fill="#2F2E41"/>
<path d="M20.4334 64.849C20.619 65.0964 20.7848 65.3581 20.9292 65.6314L48.5707 68.5317L52.5504 63.098L61.5683 68.0068L53.7531 81.1919L19.8532 72.5833C18.9979 73.4138 17.909 73.9653 16.7313 74.1644C15.5537 74.3635 14.343 74.2008 13.2605 73.698C12.1779 73.1952 11.2747 72.376 10.6709 71.3495C10.0672 70.3229 9.79154 69.1376 9.88065 67.9513C9.96977 66.7649 10.4194 65.6336 11.1698 64.708C11.9202 63.7823 12.9357 63.1061 14.0814 62.7693C15.227 62.4325 16.4485 62.451 17.5833 62.8225C18.7181 63.1939 19.7125 63.9006 20.4342 64.8486L20.4334 64.849Z" fill="#FEB8B8"/>
<path d="M84.668 98.0517C84.2684 98.0508 83.8746 97.9553 83.5193 97.7732C77.992 94.9739 67.2292 90.1264 57.2487 89.112C56.9071 89.0787 56.5764 88.9746 56.2776 88.8064C55.9788 88.6382 55.7186 88.4097 55.5138 88.1355C55.3049 87.8583 55.1557 87.5413 55.0753 87.2041C54.995 86.867 54.9852 86.517 55.0467 86.1759C55.9473 81.2106 58.0131 68.5667 57.747 58.4336C57.6686 55.3179 58.657 52.2683 60.5496 49.7862C62.4422 47.3042 65.1264 45.5373 68.161 44.7761V44.7761C69.9873 44.2961 71.8424 43.9318 73.715 43.6853C75.8679 43.4137 78.0548 43.6481 80.1004 44.3697C82.146 45.0913 83.9935 46.28 85.4949 47.8406C86.9963 49.4012 88.1099 51.2903 88.7464 53.3566C89.3829 55.4229 89.5247 57.609 89.1604 59.7397C87.3807 70.2409 85.5862 84.908 87.1458 95.1466C87.2174 95.6056 87.1601 96.0753 86.9802 96.5037C86.8002 96.9322 86.5048 97.3027 86.1265 97.5742C85.7032 97.8828 85.1926 98.05 84.668 98.0517V98.0517Z" fill="#CCCCCC"/>
<path d="M58.2583 71.3417C57.9138 71.3411 57.573 71.2703 57.257 71.1336L50.0564 68.0295C49.443 67.7642 48.9604 67.2675 48.7143 66.6483C48.4682 66.0291 48.4788 65.3379 48.7438 64.7265L54.3098 51.9206C54.6404 51.1446 55.1213 50.4411 55.7249 49.8502C56.3285 49.2593 57.0431 48.7926 57.8278 48.4767C58.6125 48.1609 59.452 48.0021 60.2984 48.0093C61.1447 48.0166 61.9813 48.1898 62.7605 48.5191C63.5396 48.8484 64.246 49.3273 64.8393 49.9285C65.4326 50.5297 65.9012 51.2414 66.2183 52.0229C66.5354 52.8045 66.6949 53.6406 66.6876 54.4835C66.6803 55.3264 66.5064 56.1597 66.1757 56.9357C66.1637 56.9639 66.1515 56.992 66.1391 57.02L60.573 69.8263C60.3771 70.2758 60.0537 70.6586 59.6426 70.9278C59.2314 71.1969 58.7504 71.3408 58.2583 71.3417Z" fill="#CCCCCC"/>
<path d="M74.7413 39.3289C82.3436 39.3289 88.5065 33.1909 88.5065 25.6193C88.5065 18.0477 82.3436 11.9097 74.7413 11.9097C67.139 11.9097 60.9761 18.0477 60.9761 25.6193C60.9761 33.1909 67.139 39.3289 74.7413 39.3289Z" fill="#FEB8B8"/>
<path d="M60.7285 18.8822C67.2486 22.8464 74.5992 25.2586 82.2082 25.9312L79.9439 23.2295C81.5924 23.8366 83.3272 24.1796 85.0835 24.2459C85.963 24.2713 86.8361 24.091 87.6329 23.7195C88.4298 23.3481 89.1281 22.7957 89.6718 22.1069C90.1157 21.3919 90.3794 20.5805 90.4404 19.7421C90.5014 18.9036 90.358 18.0629 90.0222 17.2916C89.3323 15.7526 88.2584 14.4151 86.9028 13.4063C84.4998 11.5131 81.6638 10.2414 78.6477 9.70454C75.6315 9.16767 72.5288 9.38232 69.6162 10.3294C67.6181 10.924 65.8287 12.0672 64.4529 13.628C63.1479 15.2314 60.6358 16.66 61.3039 18.6136L60.7285 18.8822Z" fill="#2F2E41"/>
<path d="M75.9717 7.33316C78.7154 4.56137 82.0358 2.42229 85.6992 1.06654C88.0244 0.0923221 90.5747 -0.222924 93.0685 0.155618C95.5271 0.648288 97.8518 2.34199 98.5378 4.74446C99.0972 6.70877 98.5194 8.82391 97.6492 10.674C96.7789 12.5241 95.617 14.2381 94.9129 16.1563C94.1947 18.1135 93.9787 20.2184 94.2845 22.2799C94.5902 24.3414 95.4081 26.2942 96.6639 27.961C97.9197 29.6278 99.5736 30.9558 101.475 31.8245C103.377 32.6931 105.467 33.075 107.555 32.9353C105.139 33.258 102.913 34.3886 100.552 34.9899C98.1906 35.5913 95.404 35.5511 93.6495 33.8661C91.7931 32.0837 91.7559 29.1857 91.8458 26.6193L92.2454 15.1733C92.3133 13.2277 92.3717 11.2196 91.6668 9.40293C90.962 7.58626 89.2878 5.99643 87.3331 6.01314C85.8515 6.02548 84.5405 6.91969 83.3521 7.80116C82.1638 8.68263 80.9064 9.62301 79.4308 9.75433C77.9551 9.88566 76.2702 8.79923 76.3804 7.3268" fill="#2F2E41"/>
<path d="M51.5987 94.5298C50.6867 94.5287 49.7862 94.3261 48.9622 93.9367C48.1383 93.5472 47.4113 92.9806 46.8336 92.2777C46.256 91.5747 45.8421 90.7529 45.6217 89.8714C45.4013 88.99 45.38 88.0708 45.5592 87.1802C45.7385 86.2895 46.1138 85.4496 46.6583 84.7208C47.2027 83.992 47.9026 83.3925 48.7077 82.9656C49.5127 82.5387 50.4028 82.2949 51.3138 82.2518C52.2249 82.2087 53.1341 82.3674 53.9762 82.7165V82.7165C54.2294 82.823 54.475 82.9469 54.711 83.0874L79.786 71.8765L80.4905 65.1033L91.2992 64.8152L91.2277 76.0913C91.2146 77.3977 90.7788 78.6651 89.9851 79.7052C89.1914 80.7454 88.082 81.5029 86.8216 81.8652L57.4992 90.1766C57.4426 90.3695 57.3759 90.5593 57.2994 90.7452C56.8289 91.8644 56.0373 92.8205 55.0238 93.4936C54.0102 94.1667 52.8198 94.527 51.6015 94.5294L51.5987 94.5298Z" fill="#FEB8B8"/>
<path d="M90.3835 70.3404C90.0761 70.4953 89.7401 70.5858 89.3962 70.6062L81.5646 71.0858C80.8972 71.1259 80.2411 70.9007 79.7402 70.4596C79.2393 70.0186 78.9345 69.3976 78.8927 68.7331L78.0332 54.8046C77.9302 53.1064 78.5083 51.437 79.6404 50.1631C80.7725 48.8892 82.3661 48.1149 84.071 48.0105C85.7759 47.906 87.4527 48.4799 88.7331 49.606C90.0134 50.7321 90.7926 52.3183 90.8994 54.0162L91.7593 67.9447C91.7891 68.434 91.6749 68.9213 91.4307 69.3468C91.1864 69.7724 90.8228 70.1177 90.3843 70.3404H90.3835Z" fill="#CCCCCC"/>
<path d="M74.6137 92.0306H27.8364C27.444 92.0306 27.126 92.3474 27.126 92.7382V95.2302C27.126 95.621 27.444 95.9378 27.8364 95.9378H74.6137C75.0061 95.9378 75.3242 95.621 75.3242 95.2302V92.7382C75.3242 92.3474 75.0061 92.0306 74.6137 92.0306Z" fill="#3F3D56"/>
<path d="M9.15234 92.31V64.9588C9.15351 63.997 9.53768 63.0748 10.2206 62.3946C10.9035 61.7145 11.8294 61.3318 12.7952 61.3307H62.6748C63.6406 61.3317 64.5666 61.7143 65.2495 62.3945C65.9325 63.0747 66.3166 63.9969 66.3177 64.9588V92.31C66.3166 93.2719 65.9325 94.1942 65.2495 94.8743C64.5666 95.5545 63.6406 95.9371 62.6748 95.9382H12.7952C11.8294 95.937 10.9035 95.5544 10.2206 94.8742C9.53768 94.1941 9.15351 93.2719 9.15234 92.31V92.31Z" fill="#3F3D56"/>
<path d="M38.335 81.985C40.1922 81.985 41.6977 80.4855 41.6977 78.6358C41.6977 76.7861 40.1922 75.2866 38.335 75.2866C36.4777 75.2866 34.9722 76.7861 34.9722 78.6358C34.9722 80.4855 36.4777 81.985 38.335 81.985Z" fill="white"/>
</svg>
