<svg width="48" height="48" viewBox="0 0 48 48" fill="none" xmlns="http://www.w3.org/2000/svg">
<path d="M24 3C12.4031 3 3 12.6469 3 24.5344C3 34.05 9.01875 42.1125 17.3625 44.9625C17.4795 44.9879 17.599 45.0005 17.7188 45C18.4969 45 18.7969 44.4281 18.7969 43.9312C18.7969 43.4156 18.7781 42.0656 18.7687 40.2656C18.0741 40.4285 17.3635 40.5134 16.65 40.5187C12.6094 40.5187 11.6906 37.3781 11.6906 37.3781C10.7344 34.8937 9.35625 34.2281 9.35625 34.2281C7.52813 32.9437 9.34687 32.9062 9.4875 32.9062H9.49688C11.6063 33.0937 12.7125 35.1375 12.7125 35.1375C13.7625 36.975 15.1687 37.4906 16.425 37.4906C17.2557 37.474 18.0735 37.2823 18.825 36.9281C19.0125 35.5406 19.5562 34.5937 20.1562 34.05C15.4969 33.5062 10.5938 31.6594 10.5938 23.4094C10.5938 21.0562 11.4094 19.1344 12.75 17.6344C12.5344 17.0906 11.8125 14.8969 12.9562 11.9344C13.1097 11.8977 13.2674 11.8819 13.425 11.8875C14.1844 11.8875 15.9 12.1781 18.7313 14.1469C22.1714 13.1844 25.8098 13.1844 29.25 14.1469C32.0813 12.1781 33.7969 11.8875 34.5563 11.8875C34.7139 11.8819 34.8716 11.8977 35.025 11.9344C36.1688 14.8969 35.4469 17.0906 35.2312 17.6344C36.5719 19.1437 37.3875 21.0656 37.3875 23.4094C37.3875 31.6781 32.475 33.4969 27.7969 34.0312C28.5469 34.6969 29.2219 36.0094 29.2219 38.0156C29.2219 40.8937 29.1937 43.2187 29.1937 43.9219C29.1937 44.4281 29.4844 45 30.2625 45C30.3885 45.0006 30.5141 44.988 30.6375 44.9625C38.9906 42.1125 45 34.0406 45 24.5344C45 12.6469 35.5969 3 24 3Z" fill="#333333"/>
</svg>
