<svg width="28" height="28" viewBox="0 0 28 28" fill="none" xmlns="http://www.w3.org/2000/svg">
<path d="M10.9736 19.25H7.875C6.48261 19.25 5.14726 18.6969 4.16269 17.7123C3.17812 16.7277 2.625 15.3924 2.625 14C2.625 12.6076 3.17812 11.2723 4.16269 10.2877C5.14726 9.30312 6.48261 8.75 7.875 8.75H10.9052" stroke="#C4C4C4" stroke-width="1.25" stroke-linecap="round" stroke-linejoin="round"/>
<path d="M17.0947 8.75H20.125C21.5173 8.75 22.8527 9.30312 23.8373 10.2877C24.8218 11.2723 25.375 12.6076 25.375 14C25.375 15.3924 24.8218 16.7277 23.8373 17.7123C22.8527 18.6969 21.5173 19.25 20.125 19.25H17.0264" stroke="#C4C4C4" stroke-width="1.25" stroke-linecap="round" stroke-linejoin="round"/>
<path d="M9.24609 14H18.8634" stroke="#C4C4C4" stroke-width="1.25" stroke-linecap="round" stroke-linejoin="round"/>
</svg>
