<svg width="36" height="36" viewBox="0 0 36 36" fill="none" xmlns="http://www.w3.org/2000/svg">
<path d="M23.625 18C22.1794 18 20.7816 17.3545 19.6875 16.1831C18.6237 15.0405 17.974 13.5169 17.8594 11.8941C17.737 10.163 18.2651 8.57109 19.3458 7.41094C20.4265 6.25078 21.9375 5.625 23.625 5.625C25.3006 5.625 26.8158 6.26203 27.893 7.41937C28.9807 8.58797 29.5102 10.177 29.3878 11.8934C29.2704 13.5183 28.6214 15.0412 27.5597 16.1824C26.4684 17.3545 25.0713 18 23.625 18Z" fill="#C4C4C4"/>
<path d="M32.8944 30.375H14.3565C14.0584 30.3766 13.764 30.3098 13.4958 30.1797C13.2276 30.0497 12.9929 29.8598 12.8096 29.6248C12.6152 29.37 12.4809 29.0745 12.4169 28.7605C12.3528 28.4464 12.3607 28.122 12.4398 27.8114C13.0318 25.4341 14.4985 23.4626 16.681 22.1105C18.6181 20.9109 21.084 20.25 23.6251 20.25C26.2161 20.25 28.6173 20.8828 30.5656 22.0816C32.753 23.4267 34.2219 25.4095 34.8111 27.8156C34.8892 28.1264 34.8962 28.4509 34.8314 28.7647C34.7666 29.0786 34.6318 29.3738 34.437 29.6283C34.2539 29.8622 34.0197 30.0512 33.7523 30.1806C33.4849 30.31 33.1914 30.3765 32.8944 30.375V30.375Z" fill="#C4C4C4"/>
<path d="M10.3359 18.2812C7.8616 18.2812 5.68613 15.9806 5.48433 13.1534C5.38449 11.7049 5.8359 10.3655 6.74996 9.3832C7.65418 8.41078 8.92965 7.875 10.3359 7.875C11.7421 7.875 13.0078 8.41359 13.9169 9.39164C14.838 10.3816 15.288 11.7183 15.1825 13.1548C14.9807 15.9813 12.806 18.2812 10.3359 18.2812Z" fill="#C4C4C4"/>
<path d="M14.9527 20.4926C13.7159 19.8879 12.1107 19.5855 10.3367 19.5855C8.26528 19.5855 6.25364 20.1255 4.6716 21.1057C2.87793 22.2187 1.67137 23.8394 1.1841 25.7962C1.1128 26.0777 1.10605 26.3716 1.16438 26.6561C1.2227 26.9405 1.34458 27.2081 1.5209 27.4387C1.68821 27.6535 1.90255 27.8271 2.14743 27.946C2.39232 28.065 2.66123 28.1262 2.93348 28.125H10.7382C10.8699 28.125 10.9974 28.0787 11.0986 27.9943C11.1997 27.9099 11.268 27.7927 11.2915 27.663C11.2993 27.6187 11.3091 27.5744 11.3204 27.5309C11.9166 25.136 13.3137 23.1124 15.3781 21.6373C15.454 21.5825 15.5151 21.5097 15.5558 21.4254C15.5964 21.3411 15.6154 21.248 15.611 21.1545C15.6066 21.061 15.579 20.9701 15.5306 20.89C15.4822 20.8099 15.4145 20.7431 15.3338 20.6958C15.2234 20.6311 15.0968 20.5629 14.9527 20.4926V20.4926Z" fill="#C4C4C4"/>
</svg>
