<svg width="48" height="48" viewBox="0 0 48 48" fill="none" xmlns="http://www.w3.org/2000/svg">
<path d="M42.8147 39.5053L33.9938 30.6844C36.1174 27.8572 37.2639 24.416 37.26 20.88C37.26 11.8481 29.9119 4.5 20.88 4.5C11.8481 4.5 4.5 11.8481 4.5 20.88C4.5 29.9119 11.8481 37.26 20.88 37.26C24.416 37.2639 27.8572 36.1174 30.6844 33.9938L39.5053 42.8147C39.9518 43.2138 40.5342 43.4269 41.1329 43.4101C41.7316 43.3934 42.3011 43.1481 42.7246 42.7246C43.1481 42.3011 43.3934 41.7316 43.4101 41.1329C43.4269 40.5342 43.2138 39.9518 42.8147 39.5053V39.5053ZM9.18 20.88C9.18 18.566 9.86619 16.3039 11.1518 14.3798C12.4374 12.4558 14.2647 10.9562 16.4026 10.0706C18.5405 9.18506 20.893 8.95337 23.1626 9.40481C25.4321 9.85626 27.5169 10.9706 29.1532 12.6069C30.7894 14.2431 31.9037 16.3279 32.3552 18.5974C32.8066 20.867 32.5749 23.2195 31.6894 25.3574C30.8038 27.4953 29.3042 29.3226 27.3802 30.6082C25.4561 31.8938 23.194 32.58 20.88 32.58C17.7781 32.5763 14.8043 31.3424 12.611 29.149C10.4176 26.9557 9.18372 23.9819 9.18 20.88V20.88Z" fill="#6C6C6C"/>
</svg>
