<svg width="28" height="28" viewBox="0 0 28 28" fill="none" xmlns="http://www.w3.org/2000/svg">
<path d="M19.612 7.07L4.72992 21.9887L3.82812 24.1719L6.01125 23.2701L20.93 8.38797L19.612 7.07Z" stroke="#C4C4C4" stroke-width="2.0625" stroke-linecap="round" stroke-linejoin="round"/>
<path d="M22.5898 4.09281L21.9451 4.73703L23.263 6.055L23.9078 5.41023C24.077 5.24093 24.172 5.01137 24.172 4.77203C24.172 4.53268 24.077 4.30313 23.9078 4.13383L23.8668 4.09281C23.7829 4.00896 23.6834 3.94244 23.5739 3.89706C23.4643 3.85168 23.3469 3.82832 23.2283 3.82832C23.1097 3.82832 22.9923 3.85168 22.8828 3.89706C22.7732 3.94244 22.6737 4.00896 22.5898 4.09281Z" stroke="#C4C4C4" stroke-width="2.0625" stroke-linecap="round" stroke-linejoin="round"/>
</svg>
