<svg width="36" height="36" viewBox="0 0 36 36" fill="none" xmlns="http://www.w3.org/2000/svg">
<path d="M23.1223 11.0243C22.6882 11.0245 22.2675 11.1753 21.9321 11.4509C21.5966 11.7265 21.3671 12.1099 21.2826 12.5358C21.1981 12.9616 21.2639 13.4036 21.4687 13.7864C21.6736 14.1692 22.0048 14.4691 22.406 14.6351C22.8072 14.801 23.2535 14.8227 23.6689 14.6965C24.0843 14.5703 24.4431 14.304 24.6842 13.9429C24.9252 13.5818 25.0336 13.1483 24.9909 12.7162C24.9481 12.2842 24.7569 11.8803 24.4498 11.5734C24.2757 11.3989 24.0687 11.2606 23.8409 11.1663C23.6131 11.0721 23.3689 11.0238 23.1223 11.0243V11.0243Z" fill="#6C6C6C"/>
<path d="M33.57 3.51985C33.5697 3.51775 33.5697 3.51561 33.57 3.51352C33.5106 3.25288 33.3795 3.01404 33.1915 2.82396C33.0035 2.63387 32.7662 2.5001 32.5062 2.43774C30.4109 1.92656 27.1147 2.47149 23.4619 3.93399C19.7804 5.41055 16.3308 7.59024 13.9993 9.92602C13.2519 10.6694 12.5577 11.4642 11.9215 12.3047C10.3515 12.2344 8.9684 12.458 7.80333 12.9663C3.74348 14.753 2.58403 19.3254 2.27536 21.2027C2.23069 21.4695 2.24818 21.7429 2.32646 22.0018C2.40475 22.2607 2.54171 22.498 2.7267 22.6953C2.91169 22.8926 3.13971 23.0446 3.39302 23.1394C3.64632 23.2342 3.91809 23.2692 4.18715 23.2418H4.19629L8.71879 22.7482C8.72442 22.8059 8.73075 22.8586 8.73567 22.9071C8.79375 23.4582 9.03952 23.9726 9.43176 24.364L11.6389 26.5725C12.0297 26.9653 12.544 27.2114 13.095 27.2693L13.2462 27.2855L12.754 31.8023V31.8115C12.7289 32.0548 12.7548 32.3006 12.83 32.5333C12.9053 32.766 13.0283 32.9804 13.1912 33.1629C13.354 33.3453 13.5532 33.4918 13.7758 33.5929C13.9985 33.694 14.2399 33.7475 14.4844 33.75C14.5822 33.7501 14.6798 33.7421 14.7762 33.7261C16.6641 33.4223 21.2344 32.277 23.0161 28.1953C23.5203 27.038 23.7432 25.6605 23.6806 24.0933C24.5249 23.4586 25.3226 22.7642 26.0677 22.0155C28.4182 19.677 30.605 16.2555 32.0661 12.6274C33.5208 9.01617 34.0686 5.69531 33.57 3.51985V3.51985ZM26.0424 15.8161C25.4647 16.3944 24.7284 16.7884 23.9267 16.9482C23.125 17.108 22.2939 17.0264 21.5386 16.7138C20.7832 16.4012 20.1376 15.8715 19.6834 15.1919C19.2291 14.5122 18.9866 13.7131 18.9866 12.8957C18.9866 12.0782 19.2291 11.2791 19.6834 10.5995C20.1376 9.91981 20.7832 9.39017 21.5386 9.07754C22.2939 8.7649 23.125 8.68332 23.9267 8.84312C24.7284 9.00291 25.4647 9.3969 26.0424 9.97523C26.4296 10.3567 26.7371 10.8113 26.947 11.3126C27.1569 11.814 27.265 12.3521 27.265 12.8957C27.265 13.4392 27.1569 13.9773 26.947 14.4787C26.7371 14.9801 26.4296 15.4347 26.0424 15.8161V15.8161Z" fill="#6C6C6C"/>
<path d="M11.3857 27.1716C11.1136 27.1378 10.8386 27.2046 10.6123 27.3593C10.163 27.6666 9.71157 27.9703 9.25594 28.2663C8.33414 28.8654 7.23164 27.8135 7.77938 26.8601L8.63368 25.3835C8.75581 25.2048 8.82382 24.9947 8.82955 24.7784C8.83527 24.562 8.77847 24.3486 8.66596 24.1638C8.55344 23.9789 8.38999 23.8304 8.1952 23.7361C8.00041 23.6418 7.78254 23.6056 7.56774 23.632C6.61957 23.7519 5.73823 24.1838 5.0625 24.8597C4.80516 25.1177 4.02258 25.901 3.60141 28.8858C3.48153 29.7431 3.40596 30.6061 3.375 31.4712C3.37115 31.6213 3.39741 31.7707 3.45222 31.9105C3.50703 32.0504 3.58929 32.1778 3.69414 32.2854C3.79899 32.3929 3.92432 32.4784 4.06272 32.5367C4.20112 32.595 4.34981 32.625 4.5 32.625H4.52813C5.39391 32.5943 6.25755 32.5192 7.11563 32.4C10.1018 31.9781 10.8851 31.1948 11.1424 30.9375C11.8214 30.2615 12.2523 29.376 12.3652 28.4245C12.4013 28.1285 12.3184 27.8303 12.1348 27.5953C11.9511 27.3604 11.6817 27.2079 11.3857 27.1716Z" fill="#6C6C6C"/>
</svg>
