<svg width="320" height="200" viewBox="0 0 320 200" fill="none" xmlns="http://www.w3.org/2000/svg">
<g clip-path="url(#clip0)">
<path d="M243.267 177.428C283.282 177.428 315.721 144.989 315.721 104.973C315.721 64.9579 283.282 32.5189 243.267 32.5189C203.251 32.5189 170.812 64.9579 170.812 104.973C170.812 144.989 203.251 177.428 243.267 177.428Z" fill="#F2F2F2"/>
<path d="M39.3098 55.3394C54.5914 55.3394 66.9795 42.9512 66.9795 27.6697C66.9795 12.3881 54.5914 0 39.3098 0C24.0283 0 11.6401 12.3881 11.6401 27.6697C11.6401 42.9512 24.0283 55.3394 39.3098 55.3394Z" fill="#E6838F"/>
<path d="M88.944 148.617C128.96 148.617 161.399 116.178 161.399 76.1627C161.399 36.1472 128.96 3.70816 88.944 3.70816C48.9284 3.70816 16.4894 36.1472 16.4894 76.1627C16.4894 116.178 48.9284 148.617 88.944 148.617Z" fill="#F2F2F2"/>
<path d="M85.521 152.611C129.475 152.611 165.107 150.695 165.107 148.332C165.107 145.969 129.475 144.053 85.521 144.053C41.5669 144.053 5.93506 145.969 5.93506 148.332C5.93506 150.695 41.5669 152.611 85.521 152.611Z" fill="#3F3D56"/>
<path opacity="0.1" d="M69.5467 151.431C102.473 151.431 129.165 150.11 129.165 148.48C129.165 146.85 102.473 145.529 69.5467 145.529C36.6205 145.529 9.92859 146.85 9.92859 148.48C9.92859 150.11 36.6205 151.431 69.5467 151.431Z" fill="black"/>
<path d="M240.414 182.848C284.368 182.848 320 180.741 320 178.141C320 175.542 284.368 173.435 240.414 173.435C196.46 173.435 160.828 175.542 160.828 178.141C160.828 180.741 196.46 182.848 240.414 182.848Z" fill="#3F3D56"/>
<path opacity="0.1" d="M224.44 181.55C257.366 181.55 284.058 180.096 284.058 178.304C284.058 176.511 257.366 175.058 224.44 175.058C191.514 175.058 164.822 176.511 164.822 178.304C164.822 180.096 191.514 181.55 224.44 181.55Z" fill="black"/>
<path d="M114.359 169.726C142.409 169.726 165.147 168.577 165.147 167.159C165.147 165.741 142.409 164.592 114.359 164.592C86.3101 164.592 63.5717 165.741 63.5717 167.159C63.5717 168.577 86.3101 169.726 114.359 169.726Z" fill="#3F3D56"/>
<path d="M24.5042 159.84C38.0375 159.84 49.0084 159.286 49.0084 158.601C49.0084 157.917 38.0375 157.363 24.5042 157.363C10.9709 157.363 0 157.917 0 158.601C0 159.286 10.9709 159.84 24.5042 159.84Z" fill="#3F3D56"/>
<path d="M271.827 199.416C297.014 199.416 317.433 198.384 317.433 197.111C317.433 195.838 297.014 194.805 271.827 194.805C246.639 194.805 226.22 195.838 226.22 197.111C226.22 198.384 246.639 199.416 271.827 199.416Z" fill="#3F3D56"/>
<path d="M266.943 123.515H175.661V177.713H266.943V123.515Z" fill="#3F3D56"/>
<path d="M205.043 171.723C216.386 171.723 225.581 162.528 225.581 151.185C225.581 139.842 216.386 130.646 205.043 130.646C193.7 130.646 184.504 139.842 184.504 151.185C184.504 162.528 193.7 171.723 205.043 171.723Z" fill="#7CBAE4"/>
<path d="M238.703 132.073H231.856V138.919H238.703V132.073Z" fill="#7CBAE4"/>
<path opacity="0.5" d="M247.26 132.073H240.414V138.919H247.26V132.073Z" fill="#7CBAE4"/>
<path opacity="0.2" d="M255.818 132.073H248.972V138.919H255.818V132.073Z" fill="#7CBAE4"/>
<path d="M238.703 140.63H231.856V147.476H238.703V140.63Z" fill="#2F2E41"/>
<path opacity="0.5" d="M247.26 140.63H240.414V147.476H247.26V140.63Z" fill="#2F2E41"/>
<path opacity="0.2" d="M255.818 140.63H248.972V147.476H255.818V140.63Z" fill="#2F2E41"/>
<path d="M238.703 149.188H231.856V156.034H238.703V149.188Z" fill="#E6838F"/>
<path opacity="0.5" d="M247.26 149.188H240.414V156.034H247.26V149.188Z" fill="#E6838F"/>
<path opacity="0.2" d="M255.818 149.188H248.972V156.034H255.818V149.188Z" fill="#E6838F"/>
<path opacity="0.5" d="M205.043 130.646V171.723C216.386 171.723 226.151 162.528 226.151 151.185C226.151 139.842 216.386 130.646 205.043 130.646Z" fill="#3F3D56"/>
<path d="M286.483 127.366C286.483 127.366 298.463 132.786 294.185 139.061C289.906 145.337 277.069 157.318 276.784 159.885C276.499 162.452 274.787 164.734 274.787 164.734C274.787 164.734 269.082 158.744 269.653 158.174C270.223 157.603 275.928 152.183 276.214 150.757C276.499 149.331 285.056 138.206 285.056 138.206L277.355 131.36L286.483 127.366Z" fill="#FFB9B9"/>
<path opacity="0.1" d="M286.483 127.366C286.483 127.366 298.463 132.786 294.185 139.061C289.906 145.337 277.069 157.318 276.784 159.885C276.499 162.452 274.787 164.734 274.787 164.734C274.787 164.734 269.082 158.744 269.653 158.174C270.223 157.603 275.928 152.183 276.214 150.757C276.499 149.331 285.056 138.206 285.056 138.206L277.355 131.36L286.483 127.366Z" fill="black"/>
<path d="M271.364 139.347C271.364 139.347 279.637 142.77 279.066 148.19C278.496 153.609 289.05 169.013 289.05 169.013C289.05 169.013 290.191 172.722 289.906 173.863C289.621 175.004 297.322 174.718 297.322 174.718V172.151C297.322 172.151 291.332 161.882 290.762 159.029C290.191 156.177 286.768 145.052 286.768 145.052C286.768 145.052 285.627 135.068 279.922 135.068C278.261 135.068 276.623 135.455 275.138 136.197C273.653 136.94 272.361 138.018 271.364 139.347V139.347Z" fill="#FFB9B9"/>
<path d="M271.792 113.531C271.792 113.531 288.907 127.509 288.337 128.65C287.766 129.791 279.494 134.07 278.068 134.355C276.641 134.64 266.55 113.531 266.55 113.531H271.792Z" fill="#2F2E41"/>
<path opacity="0.1" d="M271.792 113.531C271.792 113.531 288.907 127.509 288.337 128.65C287.766 129.791 279.494 134.07 278.068 134.355C276.641 134.64 266.55 113.531 266.55 113.531H271.792Z" fill="black"/>
<path d="M253.251 116.384C253.251 116.384 251.539 124.086 256.103 127.223C260.667 130.361 268.369 142.627 269.225 142.627C270.081 142.627 282.346 136.066 281.776 134.925C281.205 133.784 274.93 123.8 274.93 123.8L272.933 113.246C272.933 113.246 255.533 112.675 253.251 116.384Z" fill="#2F2E41"/>
<path d="M271.792 91.2814L274.359 107.826L278.923 119.522C278.923 119.522 285.77 126.653 281.776 127.223C277.782 127.794 275.5 119.522 275.5 119.522L271.792 112.675V91.2814Z" fill="#FFB9B9"/>
<path opacity="0.1" d="M271.792 91.2814L274.359 107.826L278.923 119.522C278.923 119.522 285.77 126.653 281.776 127.223C277.782 127.794 275.5 119.522 275.5 119.522L271.792 112.675V91.2814Z" fill="black"/>
<path d="M262.236 72.8825C262.236 72.8825 262.236 78.8728 260.239 79.4433C258.242 80.0138 268.226 87.7157 268.226 87.7157C268.226 87.7157 267.085 77.7318 271.079 75.1645L262.236 72.8825Z" fill="#FFB9B9"/>
<path opacity="0.1" d="M262.236 72.8825C262.236 72.8825 262.236 78.8728 260.239 79.4433C258.242 80.0138 268.226 87.7157 268.226 87.7157C268.226 87.7157 267.085 77.7318 271.079 75.1645L262.236 72.8825Z" fill="black"/>
<path d="M266.8 77.7318C270.424 77.7318 273.361 74.7944 273.361 71.171C273.361 67.5475 270.424 64.6101 266.8 64.6101C263.177 64.6101 260.239 67.5475 260.239 71.171C260.239 74.7944 263.177 77.7318 266.8 77.7318Z" fill="#FFB9B9"/>
<path d="M267.085 84.8632C267.085 84.8632 261.095 77.4466 260.239 77.7318C259.383 78.0171 253.108 84.2927 252.537 86.2894C251.967 88.2862 250.826 102.549 251.682 105.401C252.537 108.254 252.537 115.671 252.252 116.241C251.967 116.812 250.255 118.238 251.967 118.238C253.678 118.238 259.669 113.959 263.662 114.815C267.656 115.671 273.076 114.53 273.361 113.959C273.646 113.389 273.076 98.5554 273.361 97.4143C273.646 96.2733 272.79 90.5682 272.505 89.4272C272.22 88.2862 272.22 83.7221 269.367 82.5811L268.151 82.4609L268.083 85.2825L267.085 84.8632Z" fill="#7CBAE4"/>
<path d="M254.534 99.6964C254.534 99.6964 255.105 108.539 259.384 112.248C263.662 115.956 272.79 122.231 273.361 123.372C273.931 124.514 279.351 130.504 280.492 127.937C280.823 127.136 280.903 126.254 280.721 125.407C280.555 124.566 280.219 123.767 279.734 123.06C279.248 122.353 278.622 121.752 277.896 121.296L275.358 119.664L262.807 106.542L262.236 99.6964H254.534Z" fill="#FFB9B9"/>
<path d="M270.936 157.175C270.936 157.175 267.656 156.462 266.515 158.459C265.374 160.456 267.656 165.875 267.656 165.875C267.656 165.875 274.217 179.568 275.358 177.856C276.499 176.145 274.502 169.869 274.502 169.869C274.502 169.869 277.354 163.593 276.213 163.308C275.072 163.023 270.936 160.598 270.936 157.175Z" fill="#2F2E41"/>
<path d="M291.047 173.577C291.047 173.577 289.335 172.722 289.05 173.577C288.765 174.433 287.053 178.712 289.05 179.282C291.047 179.853 310.729 180.423 310.159 179.282C309.588 178.141 306.45 176.715 304.454 176.145C302.457 175.574 297.322 171.295 297.322 171.295C297.322 171.295 294.47 175.004 291.047 173.577Z" fill="#2F2E41"/>
<path d="M273.409 65.9639C273.286 65.5499 273.015 65.1958 272.647 64.9692C272.666 64.5258 272.612 64.0823 272.486 63.6565C272.067 62.4173 271.074 62.4883 270.137 61.9404C269.731 61.7027 269.756 61.4926 269.544 61.1021C269.267 60.5903 268.851 60.1665 268.345 59.879C267.744 59.496 267.11 59.1016 266.399 59.0531C264.904 58.9513 263.758 60.3569 262.33 60.808C261.7 61.0068 261.024 61.015 260.391 61.203C259.758 61.391 259.127 61.8398 259.032 62.4933C258.989 62.795 259.066 63.1044 259.021 63.406C258.934 64.0055 258.408 64.4253 258.056 64.9183C257.277 66.0086 257.366 67.5489 257.989 68.7352C258.12 68.9806 258.27 69.2155 258.438 69.4377C258.49 69.9984 258.651 70.5436 258.912 71.0425C259.534 72.2288 260.606 73.1152 261.725 73.8517C261.633 73.4583 261.577 73.0573 261.559 72.6538C261.543 72.5193 261.56 72.383 261.61 72.2569C261.734 71.9964 262.064 71.9271 262.315 71.7844C262.835 71.4888 263.039 70.8348 263.054 70.2368C263.069 69.6388 262.942 69.0398 263.005 68.4449C263.007 68.3081 263.038 68.1734 263.096 68.0493C263.154 67.9252 263.237 67.8147 263.34 67.7247C263.532 67.6152 263.751 67.5629 263.972 67.5741C265.037 67.5306 266.151 67.511 267.091 67.0071C267.394 66.8058 267.72 66.6409 268.061 66.516C268.86 66.3077 269.677 66.8676 270.137 67.5528C270.597 68.238 270.827 69.0534 271.252 69.7613C271.676 70.4691 272.41 71.1003 273.231 71.0165C273.277 71.0166 273.323 71.0069 273.366 70.9881C273.408 70.9693 273.446 70.9418 273.476 70.9074C273.512 70.8438 273.528 70.7711 273.522 70.6985L273.568 67.5594C273.606 67.0224 273.552 66.4829 273.409 65.9639Z" fill="#2F2E41"/>
<path d="M257.102 85.1484C257.102 85.1484 263.377 88.0009 263.092 93.9913C262.807 99.9816 264.803 100.552 259.954 101.123C255.105 101.693 253.964 101.123 253.678 101.693C253.393 102.264 251.682 88.5715 252.823 87.1452C253.964 85.7189 257.102 85.1484 257.102 85.1484Z" fill="#7CBAE4"/>
<path d="M130.876 36.7978C135.918 36.7978 140.005 32.711 140.005 27.6697C140.005 22.6283 135.918 18.5415 130.876 18.5415C125.835 18.5415 121.748 22.6283 121.748 27.6697C121.748 32.711 125.835 36.7978 130.876 36.7978Z" fill="#2F2E41"/>
<path d="M137.009 127.651L131.875 141.629C131.875 141.629 127.596 145.052 130.163 146.193C132.731 147.334 137.865 145.052 137.865 145.052L141.859 134.783L141.288 127.651H137.009Z" fill="#2F2E41"/>
<path opacity="0.1" d="M137.009 127.651L131.875 141.629C131.875 141.629 127.596 145.052 130.163 146.193C132.731 147.334 137.865 145.052 137.865 145.052L141.859 134.783L141.288 127.651H137.009Z" fill="black"/>
<path d="M137.437 44.7849L141.716 45.3555C141.716 45.3555 143.713 61.0444 142.857 62.1855C142.001 63.3265 137.722 67.8905 136.011 66.7495C134.299 65.6085 137.437 44.7849 137.437 44.7849Z" fill="#575A89"/>
<path d="M96.5033 73.453C96.5033 73.453 90.513 76.0203 89.372 76.3055C88.2309 76.5908 86.5194 79.4433 88.5162 80.0139C90.513 80.5844 98.2148 74.8793 98.2148 74.8793L96.5033 73.453Z" fill="#A0616A"/>
<path d="M139.006 133.356L142.144 145.052C142.144 145.052 142.429 149.331 143.855 149.616C145.282 149.901 149.561 148.19 149.561 147.619C149.561 147.049 147.849 142.485 147.849 142.485C147.849 142.485 147.849 139.061 146.137 137.635C144.426 136.209 142.884 131.431 142.884 131.431L139.006 133.356Z" fill="#2F2E41"/>
<path d="M143 106.543C143.576 107.886 143.505 117.633 142.874 124.12C142.569 127.272 142.133 129.654 141.573 129.933L137.486 128.912L135.868 128.507L135.826 124.959L135.583 105.401L130.734 85.1484V80.0139L143 81.1549L144.945 84.2099L144.996 84.2927C144.996 84.2927 142.144 104.546 143 106.543Z" fill="#2F2E41"/>
<path opacity="0.1" d="M140.432 112.818C141.043 113.734 142.061 119.216 142.874 124.12C142.569 127.272 142.133 129.654 141.573 129.933L137.486 128.912C137.423 128.781 137.36 128.644 137.295 128.507C136.773 127.412 136.282 126.202 135.826 124.959L135.583 105.401L130.734 85.1484V80.0139L143 81.1549L144.945 84.2099L133.586 83.4369L136.154 94.5618L139.291 106.257C139.291 106.257 139.291 111.107 140.432 112.818Z" fill="black"/>
<path d="M120.179 68.6037C120.179 68.6037 116.186 77.4465 121.891 89.7125C125.421 97.3457 128.563 105.153 131.304 113.103C131.304 113.103 133.301 122.517 136.154 128.507C139.006 134.497 138.436 134.783 138.436 134.783L143 132.215C143 132.215 140.432 114.53 139.291 112.818C138.15 111.107 138.15 106.257 138.15 106.257L135.013 94.5618L132.445 83.4369L144.996 84.2926C144.996 84.2926 144.996 68.0332 139.291 64.8954L120.179 68.6037Z" fill="#2F2E41"/>
<path d="M124.886 31.9485C124.886 31.9485 124.886 36.5126 123.46 36.7978C122.034 37.0831 119.181 37.0831 118.325 38.5093C117.469 39.9356 124.886 58.7624 124.886 58.7624L132.588 53.9131L135.155 41.0766C135.155 41.0766 131.447 38.7946 131.447 37.6536V32.519L124.886 31.9485Z" fill="#A0616A"/>
<path opacity="0.1" d="M124.886 31.9485C124.886 31.9485 124.886 36.5126 123.46 36.7978C122.034 37.0831 119.181 37.0831 118.325 38.5093C117.469 39.9356 124.886 58.7624 124.886 58.7624L132.588 53.9131L135.155 41.0766C135.155 41.0766 131.447 38.7946 131.447 37.6536V32.519L124.886 31.9485Z" fill="black"/>
<path d="M129.308 36.9404C133.089 36.9404 136.154 33.8753 136.154 30.0943C136.154 26.3133 133.089 23.2482 129.308 23.2482C125.527 23.2482 122.461 26.3133 122.461 30.0943C122.461 33.8753 125.527 36.9404 129.308 36.9404Z" fill="#A0616A"/>
<path d="M125.742 53.0573C125.742 53.0573 123.175 36.7978 122.604 36.7978C122.033 36.7978 114.046 38.5093 113.476 38.7946C112.905 39.0799 110.909 41.6471 110.909 41.6471L114.902 53.0573C114.902 53.0573 116.614 61.0444 117.755 62.4707C118.896 63.897 121.178 67.8906 120.037 68.4611C118.896 69.0316 117.755 69.8873 118.896 69.8873C120.037 69.8873 129.45 68.1758 130.021 69.0316C130.591 69.8873 140.005 65.8938 140.005 65.6085C140.005 65.3233 138.863 51.9163 138.863 51.9163L141.716 45.3555L133.158 39.3651L125.742 53.0573Z" fill="#575A89"/>
<path d="M113.761 40.2209L110.909 41.6471C110.909 41.6471 102.921 59.9034 102.351 60.1887C101.78 60.4739 98.9279 65.8937 98.6427 67.0348C98.3574 68.1758 97.7869 71.8841 96.9312 72.4546C96.4721 72.7663 95.996 73.052 95.5049 73.3104C95.5049 73.3104 97.2164 76.1629 98.0722 76.1629C98.9279 76.1629 101.78 72.1693 101.78 72.1693C101.78 72.1693 108.056 76.1629 109.768 73.0251C111.479 69.8873 115.758 49.9195 115.758 49.9195L113.761 40.2209Z" fill="#575A89"/>
<path d="M136.154 48.9211C136.154 48.9211 132.16 39.2224 129.878 40.3635C127.596 41.5045 131.59 48.3506 134.157 49.4916L136.154 48.9211Z" fill="#A0616A"/>
<path opacity="0.1" d="M132.16 49.2064L136.162 48.3016L137.009 52.6294C137.009 52.6294 140.718 59.1903 139.862 62.0428C139.006 64.8953 133.872 69.4594 132.16 66.8921C130.448 64.3248 129.022 60.3313 130.163 58.0492C131.304 55.7672 133.016 50.3474 132.16 49.2064Z" fill="black"/>
<path d="M133.016 48.6359L137.018 47.7311L137.865 52.0589C137.865 52.0589 141.573 58.6198 140.718 61.4723C139.862 64.3249 134.727 68.8889 133.016 66.3216C131.304 63.7544 129.878 59.7608 131.019 57.4788C132.16 55.1967 133.872 49.7769 133.016 48.6359Z" fill="#575A89"/>
<path d="M137.361 28.7198C138.13 27.0791 135.977 24.4489 132.553 22.8449C129.129 21.2409 125.731 21.2706 124.962 22.9112C124.194 24.5519 126.346 27.1821 129.77 28.7861C133.194 30.3901 136.593 30.3604 137.361 28.7198Z" fill="#2F2E41"/>
<path d="M136.296 23.9614C138.502 23.9614 140.29 22.1734 140.29 19.9678C140.29 17.7622 138.502 15.9742 136.296 15.9742C134.091 15.9742 132.303 17.7622 132.303 19.9678C132.303 22.1734 134.091 23.9614 136.296 23.9614Z" fill="#2F2E41"/>
<path d="M132.588 18.5415C132.588 17.5566 132.952 16.6064 133.61 15.8736C134.269 15.1408 135.174 14.6771 136.154 14.5716C135.596 14.5107 135.032 14.568 134.498 14.7397C133.963 14.9114 133.472 15.1938 133.054 15.5683C132.636 15.9429 132.302 16.4012 132.073 16.9135C131.845 17.4258 131.726 17.9805 131.726 18.5415C131.726 19.1026 131.845 19.6573 132.073 20.1696C132.302 20.6819 132.636 21.1402 133.054 21.5148C133.472 21.8893 133.963 22.1716 134.498 22.3434C135.032 22.5151 135.596 22.5724 136.154 22.5115C135.174 22.406 134.269 21.9423 133.61 21.2095C132.952 20.4767 132.588 19.5265 132.588 18.5415V18.5415Z" fill="#2F2E41"/>
<path d="M118.325 79.0154H18.4862V148.332H118.325V79.0154Z" fill="#3F3D56"/>
<path d="M39.5951 85.8616H26.4734V98.9833H39.5951V85.8616Z" fill="#F2F2F2"/>
<path d="M39.5951 107.256H26.4734V120.377H39.5951V107.256Z" fill="#7CBAE4"/>
<path d="M39.5951 128.65H26.4734V141.771H39.5951V128.65Z" fill="#F2F2F2"/>
<path d="M108.341 89.9977H45.8706V91.1388H108.341V89.9977Z" fill="#F2F2F2"/>
<path d="M65.2679 93.7061H45.8706V94.8471H65.2679V93.7061Z" fill="#F2F2F2"/>
<path d="M108.341 111.392H45.8706V112.533H108.341V111.392Z" fill="#F2F2F2"/>
<path d="M65.2679 115.1H45.8706V116.241H65.2679V115.1Z" fill="#F2F2F2"/>
<path d="M108.341 132.786H45.8706V133.927H108.341V132.786Z" fill="#F2F2F2"/>
<path d="M65.2679 136.494H45.8706V137.635H65.2679V136.494Z" fill="#F2F2F2"/>
<path d="M282.346 190.816C282.346 196.623 278.895 198.65 274.637 198.65C274.538 198.65 274.439 198.649 274.341 198.646C274.144 198.642 273.948 198.633 273.755 198.62C269.912 198.348 266.927 196.216 266.927 190.816C266.927 185.228 274.067 178.177 274.605 177.654L274.605 177.653C274.626 177.633 274.637 177.623 274.637 177.623C274.637 177.623 282.346 185.01 282.346 190.816Z" fill="#7CBAE4"/>
<path d="M274.355 197.762L277.175 193.822L274.348 198.194L274.341 198.646C274.144 198.642 273.948 198.633 273.755 198.619L274.059 192.811L274.057 192.765L274.062 192.757L274.091 192.208L271.257 187.825L274.099 191.797L274.106 191.913L274.336 187.524L271.909 182.995L274.365 186.754L274.605 177.654L274.605 177.623V177.653L274.565 184.829L276.981 181.984L274.556 185.447L274.492 189.377L276.748 185.605L274.482 189.955L274.447 192.14L277.72 186.89L274.434 192.902L274.355 197.762Z" fill="#3F3D56"/>
<path d="M32.1784 151.166C32.1784 156.972 28.7268 159 24.4685 159C24.3698 159 24.2712 158.998 24.1733 158.996C23.976 158.992 23.7801 158.983 23.5871 158.969C19.7439 158.697 16.7585 156.566 16.7585 151.166C16.7585 145.578 23.8986 138.527 24.4365 138.004L24.4372 138.003C24.4578 137.982 24.4685 137.972 24.4685 137.972C24.4685 137.972 32.1784 145.36 32.1784 151.166Z" fill="#7CBAE4"/>
<path d="M24.1875 158.111L27.0075 154.172L24.1804 158.544L24.1733 158.996C23.976 158.992 23.7802 158.983 23.5872 158.969L23.8909 153.16L23.8887 153.115L23.8937 153.107L23.9228 152.558L21.0886 148.175L23.9313 152.146L23.9384 152.263L24.1676 147.874L21.7415 143.344L24.1974 147.104L24.4366 138.004L24.4373 137.973V138.003L24.3975 145.179L26.813 142.334L24.3876 145.797L24.3237 149.727L26.5796 145.955L24.3145 150.305L24.279 152.49L27.5525 147.24L24.2663 153.252L24.1875 158.111Z" fill="#3F3D56"/>
</g>
<defs>
<clipPath id="clip0">
<rect width="320" height="199.416" fill="white"/>
</clipPath>
</defs>
</svg>
