<svg width="48" height="48" viewBox="0 0 48 48" fill="none" xmlns="http://www.w3.org/2000/svg">
<path d="M45.3582 3.04218C45.0032 2.95776 44.6297 3.00333 44.3054 3.17062L42.0001 4.32187L39.6751 3.15937C39.4669 3.05524 39.2372 3.00103 39.0043 3.00103C38.7715 3.00103 38.5418 3.05524 38.3336 3.15937L35.9795 4.32281L33.6564 3.15937C33.4475 3.05448 33.217 2.99986 32.9832 2.99986C32.7495 2.99986 32.519 3.05448 32.3101 3.15937L30.0001 4.31906L27.7079 3.16218C27.4996 3.05657 27.2695 3.00107 27.0359 3.00009C26.8024 2.99911 26.5718 3.05269 26.3626 3.15656L24.0001 4.32375L21.6751 3.15843C21.4665 3.05435 21.2365 3.00018 21.0034 3.00018C20.7703 3.00018 20.5403 3.05435 20.3317 3.15843L18.0001 4.32187L15.6714 3.15843C15.3712 3.00794 15.0291 2.96255 14.7001 3.02952C14.371 3.09649 14.0739 3.27195 13.8564 3.52781C13.6219 3.80724 13.4955 4.16152 13.5001 4.52625V27L13.5048 27.0047H31.5001C32.2958 27.0047 33.0588 27.3208 33.6214 27.8834C34.1841 28.446 34.5001 29.209 34.5001 30.0047V39.75C34.5001 42.6497 37.6004 45 40.5001 45H41.6251C42.9181 45 44.158 44.4864 45.0723 43.5721C45.9865 42.6579 46.5001 41.4179 46.5001 40.125V4.5C46.5004 4.16427 46.388 3.83815 46.181 3.57385C45.974 3.30955 45.6843 3.12234 45.3582 3.04218ZM39.0001 22.5H27.047C26.237 22.5 25.5376 21.8775 25.502 21.0675C25.4929 20.8651 25.5249 20.6629 25.596 20.4732C25.6672 20.2834 25.7761 20.1101 25.9161 19.9636C26.0561 19.8171 26.2243 19.7005 26.4106 19.6208C26.597 19.5411 26.7975 19.5 27.0001 19.5H38.9532C39.7632 19.5 40.4626 20.1225 40.4982 20.9325C40.5074 21.1349 40.4754 21.3371 40.4042 21.5268C40.333 21.7166 40.2242 21.8899 40.0842 22.0364C39.9441 22.1829 39.7759 22.2995 39.5896 22.3792C39.4033 22.4588 39.2028 22.4999 39.0001 22.5ZM39.0001 15H21.047C20.237 15 19.5376 14.3775 19.502 13.5675C19.4929 13.3651 19.5249 13.1629 19.596 12.9732C19.6672 12.7834 19.7761 12.6101 19.9161 12.4636C20.0561 12.3171 20.2243 12.2005 20.4106 12.1208C20.597 12.0411 20.7975 12 21.0001 12H38.9532C39.7632 12 40.4626 12.6225 40.4982 13.4325C40.5074 13.6349 40.4754 13.8371 40.4042 14.0268C40.333 14.2166 40.2242 14.3899 40.0842 14.5364C39.9441 14.6829 39.7759 14.7995 39.5896 14.8792C39.4033 14.9588 39.2028 14.9999 39.0001 15Z" fill="#C4C4C4"/>
<path d="M31.5 39.75V31.5C31.5 31.1022 31.342 30.7206 31.0607 30.4393C30.7794 30.158 30.3978 30 30 30H4.5C3.7043 30.0025 2.94197 30.32 2.37976 30.8831C1.81755 31.4462 1.50124 32.209 1.5 33.0047C1.5 37.7437 2.04187 39.7144 2.85562 41.2144C4.23656 43.7616 6.73688 45 10.5 45H33.5325C33.6065 45.0001 33.6788 44.9782 33.7404 44.9373C33.8021 44.8963 33.8502 44.838 33.8787 44.7698C33.9073 44.7015 33.915 44.6263 33.901 44.5537C33.8869 44.4811 33.8517 44.4142 33.7997 44.3616C32.9128 43.4719 31.5 42.2812 31.5 39.75Z" fill="#C4C4C4"/>
</svg>
