<svg width="48" height="48" viewBox="0 0 48 48" fill="none" xmlns="http://www.w3.org/2000/svg">
<path d="M18 16.5V12.75C18 11.7554 18.3951 10.8016 19.0983 10.0983C19.8016 9.39509 20.7554 9 21.75 9H36.75C37.7446 9 38.6984 9.39509 39.4017 10.0983C40.1049 10.8016 40.5 11.7554 40.5 12.75V35.25C40.5 36.2446 40.1049 37.1984 39.4017 37.9017C38.6984 38.6049 37.7446 39 36.75 39H22.5C20.4291 39 18 37.3209 18 35.25V31.5" stroke="#C4C4C4" stroke-width="1.5" stroke-linecap="round" stroke-linejoin="round"/>
<path d="M27 31.5L34.5 24L27 16.5" stroke="#C4C4C4" stroke-width="1.5" stroke-linecap="round" stroke-linejoin="round"/>
<path d="M7.5 24H33" stroke="#C4C4C4" stroke-width="1.5" stroke-linecap="round" stroke-linejoin="round"/>
</svg>
