<svg width="48" height="48" viewBox="0 0 48 48" fill="none" xmlns="http://www.w3.org/2000/svg">
<path d="M28.5 31.5V35.25C28.5 36.2446 28.1049 37.1984 27.4017 37.9017C26.6984 38.6049 25.7446 39 24.75 39H9.75C8.75544 39 7.80161 38.6049 7.09835 37.9017C6.39509 37.1984 6 36.2446 6 35.25V12.75C6 11.7554 6.39509 10.8016 7.09835 10.0983C7.80161 9.39509 8.75544 9 9.75 9H24C26.0709 9 28.5 10.6791 28.5 12.75V16.5" stroke="#C4C4C4" stroke-width="1.5" stroke-linecap="round" stroke-linejoin="round"/>
<path d="M34.5 31.5L42 24L34.5 16.5" stroke="#C4C4C4" stroke-width="1.5" stroke-linecap="round" stroke-linejoin="round"/>
<path d="M16.5 24H40.5" stroke="#C4C4C4" stroke-width="1.5" stroke-linecap="round" stroke-linejoin="round"/>
</svg>
