<svg width="263" height="184" viewBox="0 0 263 184" fill="none" xmlns="http://www.w3.org/2000/svg">
<path d="M11.7146 70.6121C11.966 86.1519 17.7688 87.8343 24.8949 86.2135C33.0357 84.362 39.7173 78.5586 43.0105 70.8803L45.2816 65.5849C46.7915 62.0645 46.8423 58.088 45.4229 54.53C44.0035 50.9721 41.2302 48.1243 37.713 46.613H37.7129C35.9714 45.8647 34.0997 45.4671 32.2046 45.4428C30.3095 45.4186 28.4282 45.7681 26.6682 46.4716C24.9081 47.175 23.3036 48.2186 21.9465 49.5427C20.5893 50.8668 19.506 52.4455 18.7584 54.1886C11.4502 57.0621 10.0069 63.0109 11.7146 70.6121Z" fill="#2F2E41"/>
<path d="M57.5362 39.3353L59.7235 35.6307C59.9905 35.1783 60.1518 34.6713 60.1952 34.1476C60.2385 33.624 60.1629 33.0973 59.9738 32.607C59.7848 32.1168 59.4873 31.6758 59.1036 31.3171C58.72 30.9584 58.2602 30.6913 57.7587 30.5359V30.5359C57.2294 30.3718 56.6686 30.3367 56.123 30.4336C55.5774 30.5305 55.0628 30.7564 54.6222 31.0927C54.1815 31.429 53.8275 31.8658 53.5897 32.3667C53.3519 32.8677 53.2372 33.4182 53.2551 33.9726L53.3836 37.9547L43.1047 66.15L48.71 67.3213L57.5362 39.3353Z" fill="#9F616A"/>
<path d="M3.45919 108.842L0.766997 112.197C0.438243 112.606 0.206443 113.085 0.0889893 113.597C-0.0284648 114.109 -0.0285244 114.641 0.0888143 115.154C0.206153 115.666 0.437844 116.145 0.766505 116.554C1.09517 116.964 1.51226 117.294 1.98651 117.52V117.52C2.48706 117.757 3.03717 117.872 3.59099 117.854C4.1448 117.836 4.68629 117.686 5.17031 117.416C5.65433 117.146 6.06687 116.764 6.37354 116.302C6.68022 115.84 6.87215 115.311 6.93334 114.76L7.37292 110.8L21.5602 84.3583L16.1788 82.3997L3.45919 108.842Z" fill="#9F616A"/>
<path d="M20.0926 136.753L20.4888 141.517L20.5818 142.628L46.931 140.092C47.8393 139.99 48.7105 139.674 49.474 139.171C50.2375 138.668 50.8717 137.992 51.325 137.198C51.7783 136.403 52.038 135.513 52.0829 134.599C52.1278 133.686 51.9567 132.774 51.5835 131.939L43.0858 113.679L40.1505 107.373L27.4308 104.435C16.942 112.47 26.379 121.338 38.2523 130.308C38.7171 130.661 39.1867 131.014 39.6613 131.366L20.0926 136.753Z" fill="#2F2E41"/>
<path d="M11.2141 153.251C11.5351 153.297 11.8625 153.259 12.165 153.142C12.4674 153.025 12.7347 152.832 12.9413 152.582L21.5602 142.139L21.071 137.242L18.1322 135.477C17.8918 135.333 17.6229 135.243 17.3441 135.213C17.0654 135.183 16.7835 135.214 16.518 135.304C16.2525 135.395 16.0098 135.542 15.8068 135.735C15.6038 135.929 15.4454 136.164 15.3424 136.425L9.72088 150.679C9.61589 150.946 9.57251 151.232 9.59401 151.518C9.61551 151.803 9.70132 152.08 9.84501 152.327C9.98869 152.575 10.1865 152.786 10.4236 152.946C10.6607 153.106 10.931 153.21 11.2141 153.251V153.251Z" fill="#2F2E41"/>
<path opacity="0.2" d="M18.6249 135.773L19.1141 141.649L20.4888 141.517L45.4634 139.113C46.3716 139.01 47.2429 138.695 48.0064 138.192C48.7699 137.689 49.4041 137.013 49.8574 136.218C50.3107 135.424 50.5704 134.534 50.6153 133.62C50.6602 132.706 50.489 131.795 50.1158 130.96L43.0858 115.207V113.679L40.1505 107.373L27.4308 104.435C16.942 112.47 26.379 121.338 38.2523 130.308L38.1936 130.387L18.6249 135.773Z" fill="black"/>
<path d="M8.76797 151.292C9.08901 151.338 9.41646 151.301 9.7189 151.184C10.0214 151.066 10.2887 150.873 10.4952 150.623L19.1141 140.18L18.6249 135.284L15.6861 133.519C15.4457 133.374 15.1768 133.284 14.8981 133.254C14.6193 133.224 14.3374 133.256 14.0719 133.346C13.8064 133.436 13.5638 133.583 13.3608 133.776C13.1578 133.97 12.9993 134.205 12.8963 134.466L7.27481 148.721C7.16981 148.987 7.12644 149.273 7.14794 149.559C7.16943 149.844 7.25525 150.121 7.39893 150.369C7.54262 150.616 7.74044 150.828 7.97755 150.988C8.21466 151.148 8.48489 151.252 8.76797 151.292V151.292Z" fill="#2F2E41"/>
<path d="M17.6465 134.794L18.1357 140.67L44.4849 138.133C45.3931 138.03 46.2644 137.715 47.0279 137.212C47.7914 136.709 48.4257 136.033 48.8792 135.239C49.3327 134.445 49.5926 133.555 49.6378 132.641C49.683 131.727 49.5123 130.816 49.1395 129.981L42.1074 114.228V105.414L24.9847 102.476C14.0832 110.827 24.705 120.078 37.2152 129.407L17.6465 134.794Z" fill="#2F2E41"/>
<path d="M34.2799 65.751C38.3327 65.751 41.6181 62.4626 41.6181 58.406C41.6181 54.3495 38.3327 51.061 34.2799 51.061C30.2271 51.061 26.9416 54.3495 26.9416 58.406C26.9416 62.4626 30.2271 65.751 34.2799 65.751Z" fill="#9F616A"/>
<path d="M24.4955 70.6477L34.7691 77.503L43.575 75.5443L38.6828 70.6477V63.3027L30.8554 62.813C30.691 65.7461 29.0119 68.4301 24.4955 70.6477Z" fill="#9F616A"/>
<path d="M23.0279 104.924L42.1074 107.373L46.5103 86.8067C48.5558 81.3476 47.3822 76.5245 43.5952 72.2176C43.4503 71.4928 43.0645 70.8384 42.5006 70.3612C41.9366 69.884 41.2278 69.612 40.4896 69.5896L38.6828 69.6684C38.8872 76.1626 34.1069 74.5984 26.9416 69.1787L26.0764 69.4385C24.9579 69.7744 23.9977 70.5021 23.3713 71.4886C22.745 72.475 22.4944 73.6542 22.6656 74.8104L23.4545 80.1407C23.7891 82.2538 24.3087 84.3334 25.0076 86.3554C26.9637 92.2069 26.2647 98.4016 23.0279 104.924Z" fill="#7CBAE4"/>
<path d="M14.222 82.8893L23.0279 85.8273L26.9416 71.627L25.6157 71.0238C24.5164 70.5236 23.2682 70.4608 22.1244 70.8481C20.9806 71.2354 20.0268 72.0437 19.4566 73.1091L14.222 82.8893Z" fill="#7CBAE4"/>
<path d="M40.1505 69.6684L45.0427 75.0546L50.9132 65.7509L43.5749 61.8337L40.1505 69.6684Z" fill="#7CBAE4"/>
<path d="M25.7186 56.2024C30.3299 57.9428 35.2512 57.7624 40.3951 56.2024V50.3264H25.7186V56.2024Z" fill="#2F2E41"/>
<path d="M254.587 157.07L249.528 159.18L215.801 113.184L191.349 160.024L185.025 158.758L203.575 94.1956H225.076L254.587 157.07Z" fill="#2F2E41"/>
<path d="M261.374 167.799C261.094 167.876 260.801 167.896 260.513 167.859C260.224 167.822 259.946 167.728 259.694 167.583L249.025 161.434C248.737 161.268 248.491 161.038 248.306 160.762C248.121 160.486 248.003 160.17 247.959 159.841C247.915 159.511 247.948 159.175 248.055 158.86C248.162 158.545 248.339 158.259 248.574 158.024L249.528 157.07L254.587 156.648L262.321 164.079C262.602 164.349 262.807 164.689 262.914 165.065C263.021 165.44 263.027 165.837 262.93 166.215C262.834 166.593 262.639 166.939 262.366 167.218C262.093 167.496 261.75 167.697 261.374 167.799Z" fill="#2F2E41"/>
<path d="M178.659 169.487C178.94 169.564 179.233 169.584 179.521 169.547C179.809 169.51 180.087 169.416 180.339 169.271L191.009 163.122C191.297 162.956 191.543 162.726 191.727 162.45C191.912 162.173 192.031 161.858 192.075 161.528C192.118 161.199 192.085 160.863 191.979 160.548C191.872 160.233 191.694 159.947 191.459 159.712L190.506 158.757L185.447 158.335L177.713 165.767C177.432 166.037 177.227 166.377 177.12 166.752C177.013 167.128 177.007 167.525 177.103 167.903C177.199 168.281 177.394 168.627 177.668 168.905C177.941 169.184 178.283 169.384 178.659 169.487V169.487Z" fill="#2F2E41"/>
<path d="M189.241 27.1015L187.133 28.3674L182.765 21.2625C182.496 20.8261 182.337 20.3316 182.3 19.8206C182.262 19.3095 182.348 18.797 182.55 18.3263C182.753 17.8555 183.065 17.4403 183.461 17.1157C183.857 16.791 184.325 16.5664 184.826 16.4609C185.271 16.367 185.732 16.3696 186.176 16.4684C186.62 16.5672 187.038 16.7599 187.402 17.0337C187.766 17.3075 188.067 17.6559 188.285 18.0557C188.503 18.4555 188.634 18.8974 188.667 19.3517L189.241 27.1015Z" fill="#FFB9B9"/>
<path d="M247.634 82.4175L248.508 80.1179L256.331 82.9981C256.811 83.175 257.242 83.4649 257.587 83.8434C257.932 84.222 258.181 84.678 258.313 85.173C258.445 85.6681 258.456 86.1876 258.345 86.6879C258.235 87.1881 258.006 87.6544 257.677 88.0474V88.0474C257.385 88.3968 257.022 88.6797 256.611 88.8771C256.201 89.0744 255.754 89.1817 255.299 89.1917C254.844 89.2017 254.392 89.1142 253.973 88.9351C253.555 88.7559 253.179 88.4893 252.872 88.1531L247.634 82.4175Z" fill="#FFB9B9"/>
<path d="M214.536 52.42C218.029 52.42 220.86 49.5861 220.86 46.0904C220.86 42.5946 218.029 39.7607 214.536 39.7607C211.044 39.7607 208.212 42.5946 208.212 46.0904C208.212 49.5861 211.044 52.42 214.536 52.42Z" fill="#FFB9B9"/>
<path d="M220.017 59.5935H211.163V49.8882L218.752 49.0442L220.017 59.5935Z" fill="#FFB9B9"/>
<path d="M226.341 96.7273H202.31C203.158 83.3071 203.829 70.3379 202.31 62.9694L203.707 56.2562C203.901 55.3261 204.437 54.5029 205.21 53.9505C205.982 53.398 206.934 53.1567 207.876 53.2746L211.164 53.6859C213.39 57.6041 216.081 57.5663 219.174 54.1079H223.134C223.662 54.1079 224.185 54.2133 224.672 54.418C225.158 54.6227 225.6 54.9224 225.969 55.2998C226.339 55.6772 226.63 56.1246 226.824 56.6158C227.019 57.107 227.114 57.6322 227.104 58.1606C228.135 62.8888 228.479 67.7416 228.123 72.5681L226.341 96.7273Z" fill="#3F3D56"/>
<path d="M185.868 27.1013L189.241 25.4136L207.369 55.3738L202.31 62.9692L185.868 27.1013Z" fill="#3F3D56"/>
<path d="M247.682 83.618L250.564 81.1845L235.248 59.704C233.75 57.6025 231.685 55.9719 229.294 55.003C226.903 54.0341 224.286 53.7672 221.749 54.2334L221.266 54.3222L227.057 64.466L234.684 70.2462L247.682 83.618Z" fill="#3F3D56"/>
<path d="M221.85 42.3537C221.85 42.3537 223.031 39.7517 219.959 38.5689C219.959 38.5689 217.359 34.311 212.16 37.1496C212.16 37.1496 208.615 38.5689 208.615 42.3537C208.615 46.1386 207.433 46.8482 207.433 46.8482C207.433 46.8482 209.193 45.0413 209.666 43.622C210.138 42.2026 213.814 41.8806 215.232 43.2999C216.65 44.7192 220.195 44.4827 220.195 44.4827L219.959 49.6868C219.959 49.6868 221.141 46.6117 221.613 46.6117C222.086 46.6117 222.559 42.3537 221.85 42.3537Z" fill="#2F2E41"/>
<path d="M221.266 184C242.636 184 259.96 183.097 259.96 181.983C259.96 180.869 242.636 179.966 221.266 179.966C199.896 179.966 182.572 180.869 182.572 181.983C182.572 183.097 199.896 184 221.266 184Z" fill="#E6E6E6"/>
<path d="M28.0727 183.049C39.3683 183.049 48.5252 182.572 48.5252 181.983C48.5252 181.394 39.3683 180.917 28.0727 180.917C16.7771 180.917 7.62018 181.394 7.62018 181.983C7.62018 182.572 16.7771 183.049 28.0727 183.049Z" fill="#E6E6E6"/>
<path d="M184.336 35.4895L59.9993 46.6433C59.3888 46.6973 58.7818 46.5068 58.3114 46.1134C57.8411 45.7201 57.5458 45.1561 57.4904 44.5452L54.7262 13.6742C54.6722 13.0631 54.8625 12.4556 55.2555 11.9848C55.6485 11.514 56.212 11.2185 56.8223 11.163L181.159 0.00925707C181.77 -0.0447853 182.377 0.145756 182.847 0.539084C183.317 0.932411 183.613 1.49641 183.668 2.10735L186.432 32.9783C186.486 33.5894 186.296 34.197 185.903 34.6677C185.51 35.1385 184.947 35.434 184.336 35.4895V35.4895Z" fill="#7CBAE4"/>
<path d="M74.5286 37.1756C79.8909 37.1756 84.238 32.8246 84.238 27.4573C84.238 22.09 79.8909 17.739 74.5286 17.739C69.1662 17.739 64.8192 22.09 64.8192 27.4573C64.8192 32.8246 69.1662 37.1756 74.5286 37.1756Z" fill="white"/>
<path d="M96.2852 19.0008C95.8584 19.0399 95.4645 19.247 95.1899 19.5765C94.9154 19.906 94.7827 20.3311 94.821 20.7584C94.8592 21.1857 95.0653 21.5804 95.394 21.8558C95.7227 22.1312 96.1471 22.2648 96.5742 22.2273L172.558 15.4112C172.77 15.3925 172.976 15.3321 173.164 15.2336C173.353 15.1351 173.52 15.0004 173.657 14.8371C173.793 14.6738 173.896 14.4852 173.96 14.282C174.023 14.0789 174.046 13.8652 174.027 13.6531C174.008 13.4411 173.948 13.2348 173.849 13.0462C173.75 12.8576 173.616 12.6904 173.452 12.554C173.289 12.4176 173.1 12.3148 172.897 12.2514C172.694 12.188 172.481 12.1653 172.269 12.1847L96.2852 19.0008Z" fill="white"/>
<path d="M97.152 28.6803C96.94 28.6989 96.7338 28.7591 96.5452 28.8576C96.3565 28.956 96.1891 29.0908 96.0525 29.2541C95.9159 29.4174 95.8129 29.606 95.7492 29.8093C95.6856 30.0125 95.6626 30.2263 95.6816 30.4384C95.7006 30.6505 95.7612 30.8568 95.8599 31.0454C95.9586 31.2341 96.0936 31.4014 96.257 31.5378C96.4204 31.6742 96.6091 31.777 96.8122 31.8403C97.0154 31.9036 97.229 31.9262 97.4409 31.9068L173.424 25.0906C173.636 25.0719 173.842 25.0116 174.031 24.9131C174.22 24.8146 174.387 24.6798 174.523 24.5165C174.66 24.3532 174.763 24.1646 174.826 23.9615C174.89 23.7583 174.913 23.5446 174.894 23.3326C174.875 23.1205 174.815 22.9143 174.716 22.7257C174.617 22.5371 174.482 22.3698 174.319 22.2334C174.156 22.097 173.967 21.9942 173.764 21.9308C173.561 21.8675 173.347 21.8448 173.136 21.8641L97.152 28.6803Z" fill="white"/>
</svg>
