<svg width="24" height="24" viewBox="0 0 24 24" fill="none" xmlns="http://www.w3.org/2000/svg">
<path d="M22.276 9.68063C21.7913 7.40016 20.506 5.32453 18.6563 3.83625C16.7648 2.3228 14.4141 1.4988 11.9916 1.5C9.13599 1.5 6.4688 2.60016 4.47474 4.59797C2.54771 6.5311 1.49161 9.08344 1.50005 11.783C1.50012 13.7622 2.08117 15.6978 3.17114 17.3498L3.37505 17.6334L2.25005 22.5L7.6313 21.1613C7.6313 21.1613 7.73911 21.1973 7.8188 21.2278C7.89849 21.2583 8.58427 21.5213 9.31177 21.7247C9.91646 21.8934 11.1746 22.1466 12.1604 22.1466C14.9565 22.1466 17.5674 21.0638 19.5118 19.0969C21.4388 17.1455 22.5001 14.5509 22.5001 11.7886C22.5002 11.08 22.4251 10.3734 22.276 9.68063V9.68063ZM7.50005 13.5C7.20338 13.5 6.91337 13.412 6.66669 13.2472C6.42002 13.0824 6.22776 12.8481 6.11423 12.574C6.0007 12.2999 5.97099 11.9983 6.02887 11.7074C6.08675 11.4164 6.22961 11.1491 6.43939 10.9393C6.64917 10.7296 6.91644 10.5867 7.20741 10.5288C7.49839 10.4709 7.79999 10.5007 8.07407 10.6142C8.34816 10.7277 8.58243 10.92 8.74725 11.1666C8.91208 11.4133 9.00005 11.7033 9.00005 12C9.00005 12.3978 8.84201 12.7794 8.56071 13.0607C8.27941 13.342 7.89787 13.5 7.50005 13.5ZM12.0001 13.5C11.7034 13.5 11.4134 13.412 11.1667 13.2472C10.92 13.0824 10.7278 12.8481 10.6142 12.574C10.5007 12.2999 10.471 11.9983 10.5289 11.7074C10.5867 11.4164 10.7296 11.1491 10.9394 10.9393C11.1492 10.7296 11.4164 10.5867 11.7074 10.5288C11.9984 10.4709 12.3 10.5007 12.5741 10.6142C12.8482 10.7277 13.0824 10.92 13.2473 11.1666C13.4121 11.4133 13.5001 11.7033 13.5001 12C13.5001 12.3978 13.342 12.7794 13.0607 13.0607C12.7794 13.342 12.3979 13.5 12.0001 13.5V13.5ZM16.5001 13.5C16.2034 13.5 15.9134 13.412 15.6667 13.2472C15.42 13.0824 15.2278 12.8481 15.1142 12.574C15.0007 12.2999 14.971 11.9983 15.0289 11.7074C15.0867 11.4164 15.2296 11.1491 15.4394 10.9393C15.6492 10.7296 15.9164 10.5867 16.2074 10.5288C16.4984 10.4709 16.8 10.5007 17.0741 10.6142C17.3482 10.7277 17.5824 10.92 17.7473 11.1666C17.9121 11.4133 18.0001 11.7033 18.0001 12C18.0001 12.3978 17.842 12.7794 17.5607 13.0607C17.2794 13.342 16.8979 13.5 16.5001 13.5Z" fill="white"/>
</svg>
